<?xml version="1.0" standalone="no"?>
<!DOCTYPE svg PUBLIC "-//W3C//DTD SVG 20010904//EN"
 "http://www.w3.org/TR/2001/REC-SVG-20010904/DTD/svg10.dtd">
<svg version="1.0" xmlns="http://www.w3.org/2000/svg"
 width="400.000000pt" height="162.000000pt" viewBox="0 0 400.000000 162.000000"
 preserveAspectRatio="xMidYMid meet">

<g transform="translate(0.000000,162.000000) scale(0.100000,-0.100000)"
fill="#000000" stroke="none">
<path d="M426 1464 c-68 -21 -146 -100 -175 -179 -30 -79 -25 -134 29 -311 46
-148 47 -151 56 -141 3 3 -13 68 -36 144 -23 76 -44 159 -47 184 -8 67 18 146
68 203 62 70 108 91 204 91 70 0 87 -4 134 -30 88 -48 143 -141 143 -240 0
-32 -58 -258 -108 -422 -2 -10 -47 -13 -179 -13 l-176 0 3 -37 3 -38 162 -5
c89 -3 165 -8 168 -12 4 -4 5 -14 2 -23 -5 -13 -30 -15 -157 -15 l-151 0 3
-37 3 -38 138 -3 c129 -2 137 -4 137 -22 0 -19 -7 -20 -125 -20 -69 0 -125 -2
-125 -5 0 -3 24 -42 53 -88 29 -45 56 -90 60 -99 6 -17 72 -18 1187 -18 785 0
1179 3 1175 10 -4 7 -405 10 -1171 10 l-1165 0 36 55 c42 67 45 89 7 52 -18
-18 -39 -27 -60 -27 -26 0 -36 8 -62 45 l-31 44 118 3 118 3 0 35 0 35 -137 3
c-130 2 -138 4 -138 22 0 19 7 20 149 20 l149 0 6 35 c4 20 4 40 1 45 -4 6
-74 10 -171 10 -152 0 -165 1 -162 18 3 15 21 17 173 20 l171 2 58 206 c73
260 74 308 6 414 -70 109 -209 155 -344 114z"/>
<path d="M870 840 c-18 -11 -4 -42 17 -38 10 2 19 10 21 19 4 19 -19 31 -38
19z"/>
<path d="M2771 837 c-14 -17 3 -41 23 -34 9 4 16 13 16 21 0 19 -26 28 -39 13z"/>
<path d="M3290 776 c0 -47 -3 -54 -22 -60 l-23 -7 23 -11 c21 -11 22 -16 22
-145 0 -82 4 -133 10 -133 12 0 13 6 10 152 l-2 116 26 4 c30 3 35 23 6 22
-15 0 -20 9 -25 58 -9 73 -25 76 -25 4z"/>
<path d="M874 707 c-2 -7 -3 -75 -2 -150 4 -189 22 -180 26 13 2 100 -1 150
-8 150 -6 0 -13 -6 -16 -13z"/>
<path d="M1020 713 c-6 -157 -3 -293 7 -293 8 0 12 36 15 116 3 113 4 116 31
140 36 31 87 32 113 3 16 -18 20 -40 23 -140 2 -65 7 -119 12 -119 5 0 9 52 9
115 0 159 -14 185 -101 185 -26 0 -46 -7 -59 -20 -11 -11 -22 -20 -25 -20 -3
0 -5 9 -5 20 0 18 -20 30 -20 13z"/>
<path d="M1340 571 c0 -89 4 -152 10 -156 6 -4 10 27 10 87 0 149 24 198 95
198 63 0 70 -14 73 -154 2 -69 8 -126 13 -126 5 0 9 56 9 125 0 120 -1 127
-25 150 -32 33 -103 35 -130 5 -10 -11 -22 -20 -27 -20 -4 0 -8 9 -8 20 0 11
-4 20 -10 20 -6 0 -10 -56 -10 -149z"/>
<path d="M1703 699 c-35 -23 -73 -91 -73 -132 0 -45 25 -93 66 -123 73 -56
190 -29 229 53 35 72 9 163 -57 203 -44 27 -122 27 -165 -1z m155 -19 c77 -47
81 -160 7 -218 -41 -32 -78 -36 -130 -13 -37 16 -50 29 -66 65 -29 66 -10 127
51 169 33 23 97 21 138 -3z"/>
<path d="M2035 695 c-44 -43 -27 -86 43 -117 63 -27 82 -46 82 -78 0 -35 -32
-63 -72 -63 -23 0 -39 8 -59 32 -30 36 -50 26 -24 -12 17 -26 55 -47 86 -47
35 0 78 32 89 66 18 54 -12 98 -80 119 -37 11 -60 35 -60 61 0 39 65 60 90 29
16 -19 30 -19 30 0 0 40 -89 47 -125 10z"/>
<path d="M2312 700 c-52 -32 -74 -75 -70 -140 5 -68 27 -102 86 -131 33 -16
53 -20 83 -15 47 8 89 32 89 53 0 11 -6 10 -28 -5 -83 -60 -192 -13 -208 89
-8 47 19 105 60 131 38 24 116 20 146 -7 22 -20 34 -16 25 7 -16 41 -128 52
-183 18z"/>
<path d="M2582 570 c3 -177 22 -205 23 -34 1 130 14 164 65 164 17 0 30 5 30
10 0 16 -56 12 -70 -5 -7 -8 -16 -15 -21 -15 -5 0 -9 7 -9 15 0 8 -5 15 -10
15 -7 0 -10 -52 -8 -150z"/>
<path d="M2779 716 c-9 -9 2 -296 12 -296 5 0 9 62 9 150 0 132 -4 162 -21
146z"/>
<path d="M2920 480 c0 -153 4 -240 10 -240 6 0 10 45 10 116 l0 116 30 -26
c90 -75 224 -19 237 98 7 56 -10 105 -47 141 -24 23 -41 30 -88 33 -51 4 -62
1 -89 -22 -38 -32 -43 -32 -43 -1 0 14 -4 25 -10 25 -6 0 -10 -87 -10 -240z
m200 205 c38 -20 61 -64 62 -121 1 -55 -22 -91 -75 -117 -33 -17 -42 -17 -79
-5 -75 23 -107 103 -74 182 28 68 101 95 166 61z"/>
<path d="M3463 700 c-42 -25 -65 -72 -65 -130 0 -132 135 -205 230 -125 l30
25 6 -31 c3 -17 10 -28 16 -24 6 4 10 66 10 156 0 126 -2 149 -15 149 -9 0
-15 -9 -15 -25 l0 -24 -36 24 c-46 31 -115 34 -161 5z m137 -15 c87 -45 77
-202 -15 -241 -58 -24 -127 4 -151 63 -51 120 57 234 166 178z"/>
<path d="M2990 300 c0 -6 123 -10 350 -10 227 0 350 4 350 10 0 6 -123 10
-350 10 -227 0 -350 -4 -350 -10z"/>
</g>
</svg>
